<?xml version="1.0" encoding="UTF-8" standalone="no"?>
<svg
   xmlns:dc="http://purl.org/dc/elements/1.1/"
   xmlns:cc="http://creativecommons.org/ns#"
   xmlns:rdf="http://www.w3.org/1999/02/22-rdf-syntax-ns#"
   xmlns:svg="http://www.w3.org/2000/svg"
   xmlns="http://www.w3.org/2000/svg"
   xmlns:sodipodi="http://sodipodi.sourceforge.net/DTD/sodipodi-0.dtd"
   xmlns:inkscape="http://www.inkscape.org/namespaces/inkscape"
   version="1.1"
   id="svg2"
   xml:space="preserve"
   width="772.64886"
   height="178.26093"
   viewBox="0 0 772.64886 178.26092"
   sodipodi:docname="logo.svg"
   inkscape:version="1.0.1 (3bc2e813f5, 2020-09-07)"><metadata
     id="metadata8"><rdf:RDF><cc:Work
         rdf:about=""><dc:format>image/svg+xml</dc:format><dc:type
           rdf:resource="http://purl.org/dc/dcmitype/StillImage" /><dc:title></dc:title></cc:Work></rdf:RDF></metadata><defs
     id="defs6"><clipPath
       clipPathUnits="userSpaceOnUse"
       id="clipPath74"><path
         d="m 1325.77,1207.93 c -82.89,82.89 -217.55,82.77 -300.31,0 -82.733,-82.73 -82.765,-217.301 0.12,-300.18 82.72,-82.73 217.36,-82.77 300.09,-0.031 82.77,82.761 82.82,217.501 0.1,300.211 z"
         id="path72" /></clipPath><style
       id="style2">.a{fill:#fff;}.b{fill:#414142;}</style></defs><sodipodi:namedview
     inkscape:document-rotation="0"
     pagecolor="#ffffff"
     bordercolor="#666666"
     borderopacity="1"
     objecttolerance="10"
     gridtolerance="10"
     guidetolerance="10"
     inkscape:pageopacity="0"
     inkscape:pageshadow="2"
     inkscape:window-width="1280"
     inkscape:window-height="664"
     id="namedview4"
     showgrid="false"
     inkscape:zoom="0.28281482"
     inkscape:cx="1087.9761"
     inkscape:cy="189.74605"
     inkscape:window-x="0"
     inkscape:window-y="28"
     inkscape:window-maximized="1"
     inkscape:current-layer="g12"
     fit-margin-top="0"
     fit-margin-left="0"
     fit-margin-right="0"
     fit-margin-bottom="0"
     showguides="true"
     inkscape:guide-bbox="true"
     inkscape:snap-grids="false"
     inkscape:snap-to-guides="false"><sodipodi:guide
       position="1124.5019,177.16225"
       orientation="0,-1"
       id="guide1010" /><sodipodi:guide
       position="1198.6182,5.4632821"
       orientation="0,-1"
       id="guide1012" /></sodipodi:namedview><g
     id="g10"
     inkscape:groupmode="layer"
     inkscape:label="ink_ext_XXXXXX"
     transform="matrix(1.3333333,0,0,-1.3333333,826.84754,-75.440891)"><g
       id="g12"
       transform="scale(0.1)"><g
         id="g1008"
         transform="translate(-6537.1027,-2428.2367)"><g
           id="g1074"
           transform="matrix(1.2969908,0,0,1.2969908,-505.71773,-224.36892)"><g
             id="g1033"
             transform="translate(-670.28918,38.403089)"><path
               id="path22"
               style="fill:#414142;fill-opacity:1;fill-rule:nonzero;stroke:none;stroke-width:1.70488"
               d="m 2345.8781,1026.2471 c 1.8925,-2.8812 2.8471,-6.9729 2.8471,-12.2581 0,-10.2803 -1.6536,-19.81056 -4.9611,-28.67595 -3.3074,-8.83129 -8.0981,-16.5544 -14.3721,-23.18633 -6.291,-6.61494 -13.997,-11.78071 -23.0841,-15.48033 -9.087,-3.73371 -19.3503,-5.59195 -30.7559,-5.59195 -11.4228,0 -21.9589,2.06283 -31.6256,6.18863 -9.6836,4.14292 -18.0375,10.05874 -25.0617,17.74776 -7.0411,7.67203 -12.565,16.9295 -16.6226,27.77254 -4.0576,10.86003 -6.0693,22.86243 -6.0693,36.09223 0,13.4003 2.0117,25.5221 6.0693,36.348 4.0576,10.843 9.6667,20.1005 16.8613,27.7895 7.2117,7.689 15.6678,13.6391 25.4368,17.8672 9.7519,4.2109 20.2539,6.308 31.4891,6.308 12.9059,0 24.2433,-2.2504 33.9953,-6.8195 9.769,-4.552 18.5319,-11.5249 26.2891,-20.9529 2.6597,-2.6427 4.4499,-5.0465 5.3363,-7.1946 0.9207,-2.1482 1.364,-4.1258 1.364,-5.9671 0,-3.3075 -0.9889,-5.8818 -2.9665,-7.8084 -1.9777,-1.8923 -4.3815,-2.8471 -7.1947,-2.8471 -1.8241,0 -3.5972,0.4602 -5.3362,1.364 -1.739,0.9035 -3.5972,2.6936 -5.5749,5.3191 -5.7967,7.9618 -12.3263,13.7755 -19.6061,17.4921 -7.2798,3.7337 -15.8724,5.575 -25.7949,5.575 -8.9336,0 -16.9465,-1.6708 -24.0728,-5.0635 -7.1094,-3.4099 -13.0935,-8.0641 -17.9864,-14.0312 -4.859,-5.9331 -8.6438,-13.0083 -11.2864,-21.2087 -2.6425,-8.1664 -3.9724,-16.9977 -3.9724,-26.4256 0,-9.2575 1.364,-17.8842 4.1088,-25.8971 2.7277,-8.0471 6.5979,-14.96881 11.6613,-20.86779 5.0294,-5.86475 11.0648,-10.48492 18.1059,-13.86066 7.0241,-3.4097 14.8324,-5.09757 23.442,-5.09757 7.4503,0 14.2188,1.10817 20.3392,3.34164 6.1206,2.25045 11.3715,5.42145 15.7531,9.56436 4.3815,4.14278 7.7401,9.17229 10.0588,15.12222 2.3016,5.95006 3.4609,12.582 3.4609,19.8448 h -37.2175 c -3.3074,0 -5.9841,0.9206 -8.0641,2.7448 -2.0628,1.7902 -3.0858,4.1258 -3.0858,6.9389 0,2.9835 1.023,5.4216 3.0858,7.3139 2.08,1.8925 4.7567,2.8642 8.0641,2.8642 h 46.1511 c 5.285,0 8.8995,-1.4491 10.7918,-4.3645"
               transform="matrix(1.4746633,0,0,1.4746633,-865.52003,-601.15157)" /><path
               id="path24"
               style="fill:#414142;fill-opacity:1;fill-rule:nonzero;stroke:none;stroke-width:1.70488"
               d="m 2408.3449,1041.5057 c -7.1265,-6.1034 -11.5761,-14.6278 -13.4174,-25.556 h 72.9347 c 0.3409,4.1429 -0.2217,8.2857 -1.7219,12.4115 -1.5003,4.1429 -3.7678,7.8765 -6.8196,11.1669 -3.0517,3.3075 -6.8365,6.0013 -11.2863,8.0812 -4.4838,2.0459 -9.428,3.0687 -14.9006,3.0687 -9.428,0 -17.6796,-3.0346 -24.7889,-9.1723 z m -1.739,-69.33722 c 7.1094,-7.51851 16.6225,-11.26935 28.5226,-11.26935 7.9277,0 14.7643,1.39809 20.4756,4.21112 5.6943,2.81302 10.1952,5.69424 13.5197,8.67777 2.131,1.32989 3.9553,1.99476 5.4386,1.99476 2.813,0 5.1486,-1.03997 6.9559,-3.11992 1.8241,-2.06296 2.7277,-4.33039 2.7277,-6.80256 0,-1.82413 -0.4603,-3.4779 -1.3638,-4.96117 l -3.103,-3.46092 c -4.7907,-4.48377 -11.1669,-8.33677 -19.0946,-11.54201 -7.9447,-3.2392 -16.9635,-4.84176 -27.0563,-4.84176 -9.0871,0 -17.3557,1.60256 -24.789,4.84176 -7.4504,3.20524 -13.8607,7.67203 -19.2311,13.3834 -5.3703,5.71123 -9.4961,12.42847 -12.3943,20.21978 -2.9155,7.7742 -4.3475,16.29859 -4.3475,25.55622 0,9.2574 1.5173,17.85 4.586,25.7776 3.0519,7.9448 7.3311,14.8496 12.7866,20.7143 5.4386,5.899 11.866,10.4679 19.2141,13.7925 7.3651,3.3075 15.3439,4.9611 23.9365,4.9611 8.2857,0 15.8383,-1.449 22.7089,-4.3473 6.8706,-2.8984 12.7355,-6.7855 17.6114,-11.6615 4.876,-4.8929 8.6779,-10.502 11.4056,-16.8611 2.7449,-6.3763 4.0918,-13.0253 4.0918,-19.9813 0,-4.4667 -0.7502,-8.1321 -2.2334,-11.0305 -1.4833,-2.8812 -4.6202,-4.3304 -9.428,-4.3304 h -83.0958 c 0.9889,-12.42857 5.0465,-22.38502 12.1558,-29.92052"
               transform="matrix(1.4746633,0,0,1.4746633,-865.52003,-601.15157)" /><path
               id="path26"
               style="fill:#414142;fill-opacity:1;fill-rule:nonzero;stroke:none;stroke-width:1.70488"
               d="m 2557.2489,1047.2171 c -4.8078,-2.3186 -8.8995,-5.4896 -12.2922,-9.5472 -3.3927,-4.0576 -5.9499,-8.8143 -7.6889,-14.2529 -1.739,-5.4725 -2.6085,-11.3374 -2.6085,-17.6455 0,-6.27391 0.8695,-12.08758 2.6085,-17.47493 1.739,-5.37037 4.2622,-10.12694 7.5696,-14.26985 3.3074,-4.1258 7.3481,-7.3309 12.1558,-9.66667 4.7907,-2.31864 10.3316,-3.46092 16.6225,-3.46092 6.1206,0 11.6104,1.14228 16.4862,3.46092 4.876,2.33577 8.9848,5.45569 12.2751,9.42797 3.3075,3.97241 5.8308,8.62669 7.5867,14.03116 1.722,5.35338 2.5915,11.20101 2.5915,17.47492 0,6.2911 -0.8695,12.1899 -2.5915,17.7308 -1.7559,5.5409 -4.2792,10.3487 -7.5867,14.4063 -3.2903,4.0406 -7.3991,7.2798 -12.2751,9.6666 -4.8758,2.3869 -10.3656,3.5802 -16.4862,3.5802 -6.1375,0 -11.5931,-1.1422 -16.3668,-3.4609 z m 41.2922,18.1229 c 7.5355,-3.3246 13.98,-7.8595 19.3503,-13.6561 5.3704,-5.7796 9.5644,-12.6502 12.5309,-20.5949 2.9836,-7.9277 4.4497,-16.435 4.4497,-25.5562 0,-9.08693 -1.4661,-17.54313 -4.4497,-25.40264 -2.9665,-7.87649 -7.1605,-14.69603 -12.5309,-20.49258 -5.3703,-5.76245 -11.8148,-10.33154 -19.3503,-13.62196 -7.5185,-3.32452 -15.8213,-4.96118 -24.9254,-4.96118 -9.1039,0 -17.4067,1.63666 -24.9253,4.96118 -7.5355,3.29042 -13.997,7.85951 -19.3674,13.62196 -5.3704,5.79655 -9.5472,12.61609 -12.5308,20.49258 -2.9665,7.85951 -4.4498,16.31571 -4.4498,25.40264 0,9.1212 1.4833,17.6285 4.4498,25.5562 2.9836,7.9447 7.1604,14.8153 12.5308,20.5949 5.3704,5.7966 11.8319,10.3315 19.3674,13.6561 7.5186,3.3075 15.8214,4.9611 24.9253,4.9611 9.1041,0 17.4069,-1.6536 24.9254,-4.9611"
               transform="matrix(1.4746633,0,0,1.4746633,-865.52003,-601.15157)" /><path
               id="path28"
               style="fill:#414142;fill-opacity:1;fill-rule:nonzero;stroke:none;stroke-width:1.70488"
               d="m 2666.9578,1111.6105 c 1.9607,2.0628 4.6202,3.0858 7.9106,3.0858 3.3245,0 5.9672,-1.023 7.9618,-3.0858 1.9777,-2.0971 2.9666,-4.535 2.9666,-7.3311 V 975.03259 c 0,-3.4779 0.4944,-6.27394 1.4833,-8.42209 1.0058,-2.16513 2.8982,-3.2392 5.6942,-3.2392 2.3356,0 3.9724,-0.9207 4.9783,-2.72785 1.0059,-1.82427 1.4831,-3.8871 1.4831,-6.18876 0,-3.32452 -0.9887,-5.98403 -2.9664,-7.9447 -1.9947,-1.97764 -5.1317,-2.98352 -9.4451,-2.98352 -7.9277,0 -13.7583,2.48915 -17.492,7.45032 -3.7166,4.96117 -5.5579,12.565 -5.5579,22.81123 v 130.49138 c 0,2.7961 0.9718,5.234 2.9835,7.3311"
               transform="matrix(1.4746633,0,0,1.4746633,-865.52003,-601.15157)" /><path
               id="path30"
               style="fill:#414142;fill-opacity:1;fill-rule:nonzero;stroke:none;stroke-width:1.70488"
               d="m 2760.9989,1047.2171 c -4.8078,-2.3186 -8.8995,-5.4896 -12.2922,-9.5472 -3.3927,-4.0576 -5.9499,-8.8143 -7.689,-14.2529 -1.7389,-5.4725 -2.6084,-11.3374 -2.6084,-17.6455 0,-6.27391 0.8695,-12.08758 2.6084,-17.47493 1.7391,-5.37037 4.2622,-10.12694 7.5697,-14.26985 3.3074,-4.1258 7.3481,-7.3309 12.1558,-9.66667 4.7907,-2.31864 10.3316,-3.46092 16.6225,-3.46092 6.1206,0 11.6102,1.14228 16.4862,3.46092 4.876,2.33577 8.9847,5.45569 12.2751,9.42797 3.3075,3.97241 5.8308,8.62669 7.5867,14.03116 1.7391,5.35338 2.5915,11.20101 2.5915,17.47492 0,6.2911 -0.8524,12.1899 -2.5915,17.7308 -1.7559,5.5409 -4.2792,10.3487 -7.5867,14.4063 -3.2904,4.0406 -7.3991,7.2798 -12.2751,9.6666 -4.876,2.3869 -10.3656,3.5802 -16.4862,3.5802 -6.1375,0 -11.5931,-1.1422 -16.3668,-3.4609 z m 41.2922,18.1229 c 7.5355,-3.3246 13.98,-7.8595 19.3503,-13.6561 5.3704,-5.7796 9.5644,-12.6502 12.5309,-20.5949 2.9836,-7.9277 4.4497,-16.435 4.4497,-25.5562 0,-9.08693 -1.4661,-17.54313 -4.4497,-25.40264 -2.9665,-7.87649 -7.1605,-14.69603 -12.5309,-20.49258 -5.3703,-5.76245 -11.8148,-10.33154 -19.3503,-13.62196 -7.5185,-3.32452 -15.8213,-4.96118 -24.9254,-4.96118 -9.1039,0 -17.4067,1.63666 -24.9253,4.96118 -7.5355,3.29042 -13.997,7.85951 -19.3674,13.62196 -5.3532,5.79655 -9.5472,12.61609 -12.5308,20.49258 -2.9665,7.85951 -4.4498,16.31571 -4.4498,25.40264 0,9.1212 1.4833,17.6285 4.4498,25.5562 2.9836,7.9447 7.1776,14.8153 12.5308,20.5949 5.3704,5.7966 11.8319,10.3315 19.3674,13.6561 7.5186,3.3075 15.8214,4.9611 24.9253,4.9611 9.1041,0 17.4069,-1.6536 24.9254,-4.9611"
               transform="matrix(1.4746633,0,0,1.4746633,-865.52003,-601.15157)" /><path
               id="path32"
               style="fill:#414142;fill-opacity:1;fill-rule:nonzero;stroke:none;stroke-width:1.70488"
               d="m 2937.5561,964.12135 c 4.876,2.14815 9.087,5.16577 12.6502,9.03589 3.5462,3.90422 6.3592,8.55849 8.4221,14.03116 2.0799,5.45555 3.1199,11.49093 3.1199,18.1057 0,6.615 -1.0059,12.6845 -2.9835,18.2423 -1.9777,5.5409 -4.7225,10.3315 -8.2004,14.3722 -3.4609,4.0745 -7.6379,7.2116 -12.5138,9.4449 -4.8931,2.2164 -10.2123,3.3245 -16.0088,3.3245 -5.7796,0 -11.1158,-1.1422 -15.9918,-3.4609 -4.876,-2.3186 -9.07,-5.4896 -12.5309,-9.5472 -3.4608,-4.0576 -6.1546,-8.8484 -8.0811,-14.3892 -1.8924,-5.5408 -2.83,-11.525 -2.83,-17.9866 0,-6.44427 1.0228,-12.41145 3.0858,-17.867 2.0799,-5.45569 4.893,-10.16104 8.4562,-14.13346 3.5461,-3.9553 7.723,-7.02414 12.5138,-9.17229 4.8076,-2.16513 9.9223,-3.22222 15.378,-3.22222 5.4725,0 10.6384,1.05709 15.5143,3.22222 z m 30.1423,-55.06754 c -10.4339,-10.09284 -24.9765,-15.13933 -43.662,-15.13933 -8.2857,0 -15.5485,0.90357 -21.8394,2.72784 -6.274,1.82427 -11.832,4.1258 -16.6226,6.93882 -4.1258,1.99477 -6.1887,4.96117 -6.1887,8.95057 0,2.79605 0.7672,5.11469 2.3526,6.93896 1.5686,1.80715 3.6827,2.72771 6.3252,2.72771 1.9948,0 4.0917,-0.46028 6.325,-1.36386 2.2335,-0.92055 4.7908,-1.94355 7.6891,-3.11992 2.8983,-1.15925 6.2398,-2.18225 10.0417,-3.08582 3.8019,-0.92069 8.2687,-1.34687 13.4004,-1.34687 12.7354,0 21.9589,3.66551 27.6531,11.03051 5.7114,7.34816 8.5755,17.32158 8.5755,29.88659 v 16.84418 c -4.8248,-9.25746 -10.9282,-16.5544 -18.3614,-21.94175 -7.4505,-5.37037 -16.4521,-8.047 -27.0395,-8.047 -7.7742,0 -15.054,1.51724 -21.8394,4.58608 -6.7855,3.05172 -12.7356,7.3991 -17.8501,13.00817 -5.1317,5.62618 -9.1552,12.3604 -12.0365,20.21992 -2.8982,7.85951 -4.3474,16.5885 -4.3474,26.18699 0,9.7689 1.5343,18.6342 4.5861,26.6642 3.0688,8.0129 7.2287,14.8837 12.5479,20.5779 5.2851,5.7114 11.4057,10.1441 18.3445,13.281 6.956,3.154 14.304,4.7224 22.0782,4.7224 11.4056,0 20.5779,-2.7277 27.5338,-8.2003 6.9388,-5.4557 12.3944,-12.241 16.3838,-20.3392 v 16.8782 c 0,2.6256 0.9377,4.8248 2.8472,6.5638 1.8924,1.7391 4.5008,2.6085 7.8253,2.6085 3.785,0 6.5639,-0.9207 8.2857,-2.7278 1.7391,-1.8243 2.6086,-3.9724 2.6086,-6.4445 V 953.94333 c 0,-19.84482 -5.1999,-34.81366 -15.6167,-44.88952"
               transform="matrix(1.4746633,0,0,1.4746633,-865.52003,-601.15157)" /><path
               id="path34"
               style="fill:#414142;fill-opacity:1;fill-rule:nonzero;stroke:none;stroke-width:1.70488"
               d="m 3022.084,1064.8286 c 1.9777,1.9946 4.6202,2.9835 7.9276,2.9835 3.3076,0 5.9501,-0.9889 7.9448,-2.9835 1.9947,-1.9948 2.9836,-4.4668 2.9836,-7.4333 v -82.36271 c 0,-3.4779 0.4943,-6.27394 1.4832,-8.42209 0.9888,-2.16513 2.8813,-3.2392 5.6943,-3.2392 2.3356,0 3.9724,-0.9207 4.9783,-2.72785 0.9887,-1.82427 1.4661,-3.8871 1.4661,-6.18876 0,-3.32452 -0.9717,-5.98403 -2.9665,-7.9447 -1.9777,-1.97764 -5.1146,-2.98352 -9.428,-2.98352 -7.9277,0 -13.7583,2.48915 -17.4921,7.45032 -3.7166,4.96117 -5.5749,12.565 -5.5749,22.81123 v 83.60728 c 0,2.9665 0.9889,5.4385 2.9836,7.4333 z m 17.492,44.7701 c 2.3868,-2.2335 3.5803,-5.3193 3.5803,-9.2917 0,-4.3133 -1.1935,-7.4844 -3.5803,-9.5472 -2.4208,-2.063 -5.5068,-3.103 -9.3086,-3.103 -3.8189,0 -6.8707,1.0741 -9.1723,3.2394 -2.3186,2.1481 -3.4779,5.268 -3.4779,9.4108 0,3.9724 1.1593,7.0582 3.4779,9.2917 2.3016,2.2333 5.3534,3.3756 9.1723,3.3756 3.8018,0 6.8878,-1.1423 9.3086,-3.3756"
               transform="matrix(1.4746633,0,0,1.4746633,-865.52003,-601.15157)" /><path
               id="path36"
               style="fill:#414142;fill-opacity:1;fill-rule:nonzero;stroke:none;stroke-width:1.70488"
               d="m 3177.5177,978.62991 c 2.063,-1.56845 3.1029,-3.93832 3.1029,-7.07522 0,-3.63142 -1.1422,-6.52976 -3.478,-8.67791 -4.2963,-5.77943 -10.2974,-10.87714 -17.9693,-15.27559 -7.6891,-4.34752 -16.9977,-6.54675 -27.909,-6.54675 -8.9334,0 -17.117,1.63666 -24.5502,4.96118 -7.4503,3.29042 -13.8265,7.85951 -19.1117,13.62196 -5.3022,5.79655 -9.3939,12.61609 -12.2921,20.49258 -2.8813,7.85951 -4.3304,16.40102 -4.3304,25.64134 0,9.1382 1.5344,17.5944 4.5861,25.4539 3.0688,7.8424 7.2798,14.6789 12.6502,20.4585 5.3704,5.7966 11.7466,10.3315 19.1117,13.6561 7.365,3.3075 15.3438,4.9611 23.9364,4.9611 10.9113,0 20.2199,-2.114 27.909,-6.325 7.6719,-4.2111 13.7583,-9.2234 18.2251,-15.02 1.3298,-1.8242 2.4379,-3.5972 3.3586,-5.3363 0.9036,-1.7218 1.3639,-3.512 1.3639,-5.3361 0,-3.3076 -1.04,-5.7455 -3.1199,-7.3141 -2.063,-1.5854 -4.2452,-2.3697 -6.5638,-2.3697 -1.9777,0 -3.5803,0.4262 -4.8418,1.2615 l -3.103,2.7279 c -0.9718,1.3299 -2.3868,3.0176 -4.211,5.0806 -1.8242,2.0628 -4.0576,4.0576 -6.6831,5.9499 -2.6596,1.9096 -5.7966,3.5632 -9.4451,4.9613 -3.6313,1.398 -7.7742,2.0969 -12.3944,2.0969 -5.7795,0 -11.0988,-1.1933 -15.8724,-3.5802 -4.8078,-2.3868 -8.8484,-5.6772 -12.1558,-9.803 -3.3075,-4.1258 -5.8818,-8.9336 -7.689,-14.3892 -1.8243,-5.4557 -2.7448,-11.2352 -2.7448,-17.3728 0,-6.12039 0.9205,-11.89996 2.7448,-17.35551 1.8072,-5.45569 4.3815,-10.19528 7.689,-14.26986 3.3074,-4.05759 7.3139,-7.21161 12.0194,-9.54738 4.7225,-2.31864 9.9735,-3.46092 15.7701,-3.46092 6.4445,0 12.3092,1.48327 17.5944,4.44981 5.3022,2.98353 10.0929,6.95581 14.4061,11.91712 2.4722,2.489 5.0294,3.71659 7.6721,3.71659 2.1651,0 4.2622,-0.78429 6.325,-2.35274"
               transform="matrix(1.4746633,0,0,1.4746633,-865.52003,-601.15157)" /><path
               id="path38"
               style="fill:#414142;fill-opacity:1;fill-rule:nonzero;stroke:none;stroke-width:1.70488"
               d="m 3279.674,964.12135 c 4.7737,2.14815 8.9507,5.13167 12.5138,8.93359 3.5462,3.7848 6.3592,8.42209 8.4392,13.87778 2.0628,5.45555 3.1028,11.50791 3.1028,18.12288 0,6.6148 -1.0059,12.7353 -2.9835,18.3614 -1.9777,5.6091 -4.7225,10.4509 -8.2004,14.4916 -3.4439,4.0745 -7.5867,7.2116 -12.3945,9.4449 -4.7907,2.2164 -10.0759,3.3245 -15.8724,3.3245 -6.1206,0 -11.6102,-1.1422 -16.5032,-3.4609 -4.859,-2.3186 -9.053,-5.4896 -12.5138,-9.5472 -3.478,-4.0576 -6.1377,-8.8484 -7.9448,-14.3892 -1.8072,-5.5408 -2.7277,-11.6103 -2.7277,-18.2251 0,-6.44447 1.0058,-12.41165 2.9835,-17.8672 1.9776,-5.47267 4.7053,-10.12694 8.1663,-14.03116 3.478,-3.87012 7.6549,-6.88774 12.5478,-9.03589 4.8591,-2.16513 10.1953,-3.22222 15.9919,-3.22222 5.4726,0 10.5873,1.05709 15.395,3.22222 z m 47.1228,2.59145 c 0.9889,-2.38685 2.8984,-3.5802 5.7114,-3.5802 1.9776,0 3.5802,-0.7502 4.8248,-2.23347 1.2445,-1.50025 1.8753,-3.63128 1.8753,-6.44444 0,-7.27982 -4.4668,-10.92822 -13.4002,-10.92822 -3.8191,0 -7.0413,0.5797 -9.6838,1.73895 -2.6425,1.15939 -4.8248,2.72785 -6.5637,4.70549 -1.7561,1.97765 -3.0518,4.31328 -3.9724,6.95594 -0.9206,2.64253 -1.5344,5.45555 -1.8584,8.42209 v 5.69425 c -4.3133,-9.25746 -10.2975,-16.5544 -17.9865,-21.94175 -7.6888,-5.37037 -16.827,-8.047 -27.4144,-8.047 -7.7742,0 -15.1052,1.55134 -21.9587,4.70536 -6.8537,3.13704 -12.8037,7.51852 -17.8672,13.12758 -5.0294,5.64317 -9.0018,12.37739 -11.9,20.23691 -2.8983,7.85951 -4.3304,16.5885 -4.3304,26.16981 0,9.6156 1.5172,18.3957 4.5861,26.4257 3.0517,8.0129 7.1946,14.8837 12.3945,20.5779 5.1999,5.7114 11.2862,10.1441 18.2421,13.281 6.956,3.154 14.3722,4.7224 22.3169,4.7224 10.9112,0 19.913,-2.5743 27.0393,-7.706 7.1095,-5.1146 12.7355,-12.0704 16.8783,-20.8335 v 16.8782 c 0,2.7961 0.9378,5.0294 2.8642,6.7002 1.8754,1.6368 4.5009,2.4721 7.8083,2.4721 3.3076,0 5.9501,-0.8353 7.9277,-2.4721 1.9777,-1.6708 2.9666,-3.9041 2.9666,-6.7002 v -83.36851 c 0,-3.3074 0.5115,-6.15467 1.5002,-8.55849"
               transform="matrix(1.4746633,0,0,1.4746633,-865.52003,-601.15157)" /><path
               id="path40"
               style="fill:#414142;fill-opacity:1;fill-rule:nonzero;stroke:none;stroke-width:1.70488"
               d="m 3366.0432,1111.6105 c 1.9946,2.0628 4.6373,3.0858 7.9618,3.0858 3.3074,0 5.9499,-1.023 7.9276,-3.0858 1.9776,-2.0971 2.9665,-4.535 2.9665,-7.3311 V 975.03259 c 0,-3.4779 0.5115,-6.27394 1.5003,-8.42209 0.9717,-2.16513 2.8983,-3.2392 5.6944,-3.2392 2.3185,0 3.9894,-0.9207 4.9611,-2.72785 0.9888,-1.82427 1.5003,-3.8871 1.5003,-6.18876 0,-3.32452 -1.0059,-5.98403 -2.9835,-7.9447 -1.9948,-1.97764 -5.1317,-2.98352 -9.428,-2.98352 -7.9447,0 -13.7584,2.48915 -17.475,7.45032 -3.7337,4.96117 -5.5921,12.565 -5.5921,22.81123 v 130.49138 c 0,2.7961 0.9889,5.234 2.9666,7.3311"
               transform="matrix(1.4746633,0,0,1.4746633,-865.52003,-601.15157)" /></g><g
             id="g1021"
             transform="translate(748.12425,465.16574)"><path
               id="path42"
               style="fill:#414142;fill-opacity:1;fill-rule:nonzero;stroke:none;stroke-width:1.70488"
               d="m 2717.0884,822.92975 c 2.08,1.58543 4.3474,2.36972 6.8366,2.36972 3.3075,0 6.0693,-0.98889 8.3028,-2.98352 2.2333,-1.97765 3.3415,-5.04649 3.3415,-9.17228 V 664.80224 c 0,-3.30748 -1.0229,-5.9671 -3.1028,-7.94474 -2.063,-1.97767 -4.7567,-2.98354 -8.0641,-2.98354 -3.2905,0 -5.9842,1.00587 -8.047,2.98354 -2.08,1.97764 -3.103,4.63726 -3.103,7.94474 v 116.10223 l -50.6178,-90.06875 c -1.3298,-2.47207 -2.7277,-4.29628 -4.211,-5.4556 -1.4833,-1.14228 -3.3927,-1.72193 -5.7114,-1.72193 -3.8019,0 -7.0241,2.38683 -9.6836,7.17753 l -49.3563,89.06288 V 665.05797 c 0,-3.32452 -1.04,-5.98414 -3.1028,-7.94475 -2.063,-1.97765 -4.7396,-2.98354 -8.0642,-2.98354 -3.3074,0 -5.9841,1.00589 -8.047,2.98354 -2.0799,1.96061 -3.1029,4.62023 -3.1029,7.94475 v 148.0857 c 0,3.80191 1.0571,6.78544 3.2222,8.93358 2.1482,2.14815 5.1317,3.22222 8.9336,3.22222 2.9666,0 5.4216,-0.78429 7.3139,-2.36972 1.8925,-1.55147 3.836,-4.2622 5.8307,-8.04713 l 57.0623,-100.48547 57.0452,100.48547 c 2.1481,3.78493 4.2622,6.49566 6.3251,8.04713"
               transform="matrix(1.4746633,0,0,1.4746633,-865.52003,-601.15157)" /><path
               id="path44"
               style="fill:#414142;fill-opacity:1;fill-rule:nonzero;stroke:none;stroke-width:1.70488"
               d="m 2844.5622,674.72463 c 4.7907,2.14815 8.9676,5.13168 12.5308,8.93356 3.5462,3.78483 6.3593,8.42211 8.4221,13.87771 2.0799,5.4556 3.1029,11.50793 3.1029,18.12285 0,6.61493 -0.9889,12.73544 -2.9665,18.36154 -1.9946,5.60906 -4.7225,10.45091 -8.2004,14.49147 -3.4609,4.07471 -7.6038,7.21162 -12.3945,9.44508 -4.7907,2.21635 -10.0928,3.32452 -15.8895,3.32452 -6.1035,0 -11.5931,-1.14227 -16.4861,-3.46092 -4.876,-2.31864 -9.07,-5.48978 -12.5139,-9.54737 -3.4779,-4.05761 -6.1376,-8.84831 -7.9617,-14.38916 -1.8071,-5.54085 -2.7109,-11.61023 -2.7109,-18.22516 0,-6.44444 0.9889,-12.41151 2.9666,-17.86712 1.9776,-5.47265 4.7055,-10.12698 8.1834,-14.03114 3.478,-3.87008 7.6379,-6.88771 12.5309,-9.03586 4.876,-2.1652 10.2122,-3.22222 15.9917,-3.22222 5.4726,0 10.6043,1.05702 15.3951,3.22222 z m 47.1229,2.59142 c 0.9887,-2.38684 2.8982,-3.58024 5.7112,-3.58024 1.9776,0 3.5973,-0.75016 4.8419,-2.2334 1.2276,-1.5003 1.8584,-3.63139 1.8584,-6.44444 0,-7.27985 -4.4668,-10.92829 -13.4004,-10.92829 -3.8019,0 -7.0242,0.57967 -9.6837,1.73898 -2.6255,1.15932 -4.8249,2.7278 -6.5638,4.70546 -1.739,1.97766 -3.0518,4.31336 -3.9724,6.95593 -0.9036,2.64255 -1.5344,5.4556 -1.8583,8.42209 v 5.6943 c -4.3134,-9.25749 -10.2974,-16.55437 -17.9864,-21.94181 -7.6721,-5.37037 -16.8272,-8.04702 -27.4145,-8.04702 -7.7572,0 -15.0882,1.55144 -21.9418,4.70547 -6.8707,3.13697 -12.8207,7.51853 -17.8671,13.12758 -5.0465,5.64314 -9.0188,12.37742 -11.9001,20.2369 -2.8982,7.85949 -4.3474,16.58846 -4.3474,26.16988 0,9.61551 1.5344,18.39564 4.5861,26.42561 3.0517,8.01292 7.1946,14.8836 12.3945,20.57785 5.217,5.71136 11.2863,10.14406 18.2421,13.2811 6.956,3.15402 14.3893,4.72247 22.334,4.72247 10.8941,0 19.913,-2.57433 27.0393,-7.70613 7.1093,-5.11455 12.7184,-12.07049 16.8613,-20.83358 v 16.87828 c 0,2.79604 0.9547,5.02937 2.8643,6.70026 1.8923,1.63665 4.5007,2.47203 7.8083,2.47203 3.3074,0 5.95,-0.83538 7.9277,-2.47203 1.9776,-1.67089 2.9835,-3.90422 2.9835,-6.70026 v -83.3685 c 0,-3.30747 0.4944,-6.15461 1.4833,-8.55849"
               transform="matrix(1.4746633,0,0,1.4746633,-865.52003,-601.15157)" /><path
               id="path46"
               style="fill:#414142;fill-opacity:1;fill-rule:nonzero;stroke:none;stroke-width:1.70488"
               d="m 3005.3663,674.96331 c 4.7906,2.33569 8.9335,5.45561 12.4114,9.42798 3.4781,3.97236 6.1547,8.67783 8.0642,14.15048 1.8924,5.43857 2.8471,11.3204 2.8471,17.59435 0,6.291 -0.9547,12.20694 -2.8471,17.74779 -1.9095,5.54085 -4.5861,10.33155 -8.0642,14.38916 -3.4779,4.05759 -7.6208,7.22873 -12.4114,9.54737 -4.7907,2.31865 -10.1611,3.46092 -16.1112,3.46092 -5.7965,0 -11.1328,-1.14227 -16.0088,-3.46092 -4.8758,-2.31864 -9.0528,-5.54086 -12.5307,-9.68375 -3.4609,-4.10876 -6.1717,-8.93356 -8.0472,-14.37213 -1.9264,-5.4556 -2.8641,-11.33744 -2.8641,-17.62844 0,-6.27395 0.9377,-12.15578 2.8641,-17.59435 1.8755,-5.47265 4.5863,-10.17812 8.0472,-14.15048 3.4779,-3.97237 7.6549,-7.09229 12.5307,-9.42798 4.876,-2.31863 10.2123,-3.4609 16.0088,-3.4609 5.9501,0 11.3205,1.14227 16.1112,3.4609 z m -58.5455,-64.98988 c -1.9776,-1.97766 -4.535,-2.98354 -7.672,-2.98354 -3.3074,0 -6.0012,1.00588 -8.0811,2.98354 -2.0628,1.97765 -3.1028,4.44973 -3.1028,7.45032 v 151.81929 c 0,2.30166 0.9205,4.41571 2.7448,6.30804 1.8072,1.90945 4.6202,2.86425 8.4391,2.86425 3.7849,0 6.5126,-0.9207 8.1834,-2.72785 1.6368,-1.82413 2.4721,-3.97228 2.4721,-6.44444 v -16.87828 c 3.9723,7.94469 9.5473,14.67905 16.7419,20.2028 7.1947,5.55799 16.2475,8.33691 27.1588,8.33691 8.439,0 16.128,-1.61967 23.0669,-4.85887 6.9559,-3.22222 12.9912,-7.67204 18.1058,-13.40038 5.1487,-5.69425 9.1211,-12.51383 11.9341,-20.45855 2.7961,-7.92769 4.194,-16.60553 4.194,-26.05055 0,-9.25749 -1.4491,-17.79893 -4.3304,-25.65842 -2.8982,-7.85948 -6.8706,-14.679 -11.9,-20.47559 -5.0464,-5.77953 -11.1328,-10.29748 -18.2422,-13.50265 -7.1093,-3.23927 -14.8835,-4.84185 -23.3228,-4.84185 -10.4167,0 -19.2992,2.59142 -26.6642,7.80834 -7.3651,5.1999 -12.9401,12.17286 -16.7419,20.95297 v -62.99517 c 0,-3.00059 -1.0058,-5.47267 -2.9835,-7.45032"
               transform="matrix(1.4746633,0,0,1.4746633,-865.52003,-601.15157)" /><path
               id="path48"
               style="fill:#414142;fill-opacity:1;fill-rule:nonzero;stroke:none;stroke-width:1.70488"
               d="m 3157.2538,674.96331 c 4.7908,2.33569 8.9336,5.45561 12.4116,9.42798 3.4779,3.97236 6.1376,8.67783 8.064,14.15048 1.8925,5.43857 2.8302,11.3204 2.8302,17.59435 0,6.291 -0.9377,12.20694 -2.8302,17.74779 -1.9264,5.54085 -4.5861,10.33155 -8.064,14.38916 -3.478,4.05759 -7.6208,7.22873 -12.4116,9.54737 -4.8076,2.31865 -10.178,3.46092 -16.1281,3.46092 -5.7795,0 -11.1158,-1.14227 -16.0088,-3.46092 -4.8589,-2.31864 -9.0359,-5.54086 -12.5138,-9.68375 -3.4779,-4.10876 -6.1716,-8.93356 -8.0641,-14.37213 -1.9094,-5.4556 -2.8641,-11.33744 -2.8641,-17.62844 0,-6.27395 0.9547,-12.15578 2.8641,-17.59435 1.8925,-5.47265 4.5862,-10.17812 8.0641,-14.15048 3.4779,-3.97237 7.6549,-7.09229 12.5138,-9.42798 4.893,-2.31863 10.2293,-3.4609 16.0088,-3.4609 5.9501,0 11.3205,1.14227 16.1281,3.4609 z m -58.5454,-64.98988 c -1.9777,-1.97766 -4.535,-2.98354 -7.689,-2.98354 -3.3074,0 -6.0012,1.00588 -8.047,2.98354 -2.08,1.97765 -3.12,4.44973 -3.12,7.45032 v 151.81929 c 0,2.30166 0.9206,4.41571 2.7277,6.30804 1.8243,1.90945 4.6373,2.86425 8.4393,2.86425 3.7848,0 6.5296,-0.9207 8.1834,-2.72785 1.6366,-1.82413 2.4721,-3.97228 2.4721,-6.44444 v -16.87828 c 3.9894,7.94469 9.5644,14.67905 16.7419,20.2028 7.2116,5.55799 16.2645,8.33691 27.1757,8.33691 8.4391,0 16.1281,-1.61967 23.0671,-4.85887 6.9558,-3.22222 12.9912,-7.67204 18.1057,-13.40038 5.1317,-5.69425 9.1211,-12.51383 11.9171,-20.45855 2.813,-7.92769 4.2111,-16.60553 4.2111,-26.05055 0,-9.25749 -1.4491,-17.79893 -4.3475,-25.65842 -2.8812,-7.85948 -6.8536,-14.679 -11.9,-20.47559 -5.0293,-5.77953 -11.1158,-10.29748 -18.2422,-13.50265 -7.1094,-3.23927 -14.8666,-4.84185 -23.2887,-4.84185 -10.4338,0 -19.3333,2.59142 -26.6983,7.80834 -7.331,5.1999 -12.923,12.17286 -16.7419,20.95297 v -62.99517 c 0,-3.00059 -0.9889,-5.47267 -2.9665,-7.45032"
               transform="matrix(1.4746633,0,0,1.4746633,-865.52003,-601.15157)" /><path
               id="path50"
               style="fill:#414142;fill-opacity:1;fill-rule:nonzero;stroke:none;stroke-width:1.70488"
               d="m 3234.7235,775.4318 c 1.9607,1.99463 4.6373,2.98353 7.9277,2.98353 3.3246,0 5.9501,-0.9889 7.9447,-2.98353 1.9777,-1.99476 2.9666,-4.46679 2.9666,-7.43333 v -82.36262 c 0,-3.47795 0.4944,-6.27396 1.5002,-8.4221 0.9889,-2.16519 2.8984,-3.23926 5.6943,-3.23926 2.3186,0 3.9724,-0.92064 4.9613,-2.72782 0.9887,-1.82421 1.5002,-3.88711 1.5002,-6.1887 0,-3.32452 -1.0058,-5.98414 -2.9835,-7.94475 -1.9948,-1.97765 -5.1317,-2.98354 -9.428,-2.98354 -7.9448,0 -13.7583,2.48913 -17.492,7.45032 -3.7166,4.96121 -5.575,12.56497 -5.575,22.81129 v 83.60718 c 0,2.96654 0.9889,5.43857 2.9835,7.43333 z m 17.475,44.7701 c 2.404,-2.23346 3.5973,-5.31928 3.5973,-9.29156 0,-4.31342 -1.1933,-7.48442 -3.5973,-9.54739 -2.3867,-2.06283 -5.4897,-3.1028 -9.2916,-3.1028 -3.8018,0 -6.8706,1.07407 -9.1892,3.2392 -2.3187,2.14815 -3.461,5.26807 -3.461,9.41099 0,3.97228 1.1423,7.0581 3.461,9.29156 2.3186,2.23333 5.3874,3.37561 9.1892,3.37561 3.8019,0 6.9049,-1.14228 9.2916,-3.37561"
               transform="matrix(1.4746633,0,0,1.4746633,-865.52003,-601.15157)" /><path
               id="path52"
               style="fill:#414142;fill-opacity:1;fill-rule:nonzero;stroke:none;stroke-width:1.70488"
               d="m 3293.7805,775.4318 c 1.8242,1.99463 4.6373,2.98353 8.4392,2.98353 3.8019,0 6.5296,-0.9548 8.1834,-2.86425 1.6537,-1.89233 2.472,-4.00638 2.472,-6.30804 v -11.89999 c 3.3075,7.2627 8.371,13.02528 15.1393,17.23626 6.7855,4.21111 14.8155,6.32516 24.0729,6.32516 15.3781,0 26.9883,-4.60319 34.8478,-13.77548 7.8595,-9.17215 11.7807,-21.2939 11.7807,-36.34797 v -66.23451 c 0,-2.81306 -1.023,-5.25105 -3.0858,-7.2969 -2.08,-2.07994 -4.6714,-3.11993 -7.8084,-3.11993 -3.1541,0 -5.7284,1.03999 -7.706,3.11993 -1.9777,2.04585 -2.9836,4.48384 -2.9836,7.2969 v 60.04581 c 0,11.06465 -2.7789,19.96411 -8.3028,26.64724 -5.5408,6.71728 -13.2809,10.0418 -23.2033,10.0418 -10.4168,0 -18.4809,-3.40984 -24.1923,-10.28048 -5.6943,-6.87067 -8.5585,-15.83831 -8.5585,-26.90298 v -59.55139 c 0,-2.81306 -0.9888,-5.25105 -2.9664,-7.2969 -1.9777,-2.07994 -4.6202,-3.11993 -7.9277,-3.11993 -2.9835,0 -5.5579,0.95474 -7.706,2.8642 -2.1312,1.87536 -3.2222,4.41563 -3.2222,7.55263 v 104.44085 c 0,2.30153 0.9205,4.44968 2.7277,6.44444"
               transform="matrix(1.4746633,0,0,1.4746633,-865.52003,-601.15157)" /><path
               id="path54"
               style="fill:#414142;fill-opacity:1;fill-rule:nonzero;stroke:none;stroke-width:1.70488"
               d="m 3503.5828,674.72463 c 4.893,2.14815 9.087,5.16578 12.6502,9.03586 3.5632,3.90416 6.3763,8.55849 8.4221,14.03114 2.08,5.45561 3.1199,11.49088 3.1199,18.10581 0,6.61493 -1.0058,12.68429 -2.9835,18.24219 -1.9776,5.54085 -4.7225,10.33157 -8.1834,14.37213 -3.4609,4.07471 -7.6549,7.21162 -12.5309,9.44508 -4.8758,2.21635 -10.1951,3.32452 -16.0088,3.32452 -5.7794,0 -11.1157,-1.14227 -15.9917,-3.46092 -4.876,-2.31864 -9.0529,-5.48978 -12.5309,-9.54737 -3.4609,-4.05761 -6.1545,-8.84831 -8.0641,-14.38916 -1.8923,-5.54085 -2.8471,-11.52498 -2.8471,-17.98647 0,-6.44444 1.0399,-12.41152 3.1029,-17.86712 2.08,-5.45562 4.876,-10.16108 8.4391,-14.13345 3.5632,-3.95531 7.7231,-7.02409 12.5309,-9.17224 4.7907,-2.1652 9.9223,-3.22222 15.3609,-3.22222 5.4727,0 10.6384,1.05702 15.5144,3.22222 z m 30.1423,-55.0675 c -10.4169,-10.09287 -24.9765,-15.13932 -43.6619,-15.13932 -8.2687,0 -15.5486,0.90359 -21.8225,2.72782 -6.2909,1.82421 -11.8489,4.12579 -16.6226,6.93884 -4.1428,1.99472 -6.2058,4.9612 -6.2058,8.95061 0,2.79601 0.7843,5.11464 2.3699,6.93885 1.5513,1.8071 3.6654,2.72772 6.3081,2.72772 1.9946,0 4.0917,-0.4603 6.3421,-1.36389 2.2163,-0.92056 4.7907,-1.94348 7.6719,-3.11984 2.8983,-1.15932 6.257,-2.18225 10.0587,-3.08584 3.785,-0.92064 8.2688,-1.34686 13.3834,-1.34686 12.7354,0 21.9588,3.6655 27.6701,11.03049 5.6944,7.34802 8.5585,17.32156 8.5585,29.88653 v 16.8442 c -4.8078,-9.25749 -10.9282,-16.55437 -18.3615,-21.94181 -7.4503,-5.37037 -16.452,-8.04702 -27.0393,-8.04702 -7.7742,0 -15.0541,1.51734 -21.8225,4.58612 -6.7855,3.05173 -12.7354,7.39919 -17.8671,13.00825 -5.1318,5.62608 -9.1381,12.36036 -12.0365,20.21985 -2.8982,7.85948 -4.3304,16.58846 -4.3304,26.18692 0,9.76895 1.5174,18.63433 4.5862,26.6643 3.0518,8.01292 7.2286,14.8836 12.5308,20.57785 5.2852,5.71136 11.4056,10.14406 18.3446,13.2811 6.9558,3.15402 14.3038,4.72247 22.0951,4.72247 11.4056,0 20.5779,-2.72784 27.5338,-8.20051 6.9389,-5.45555 12.3946,-12.24099 16.3668,-20.3392 v 16.87828 c 0,2.62554 0.9548,4.82491 2.8472,6.56386 1.9094,1.73895 4.518,2.60843 7.8254,2.60843 3.7848,0 6.5638,-0.9207 8.2857,-2.72785 1.756,-1.82413 2.6255,-3.97228 2.6255,-6.44444 V 664.54651 c 0,-19.8448 -5.217,-34.81355 -15.6337,-44.88938"
               transform="matrix(1.4746633,0,0,1.4746633,-865.52003,-601.15157)" /></g></g><g
           id="g1039"
           transform="matrix(0.81072976,0,0,0.81072976,-19.538747,343.86777)"><path
             d="m 1932.3458,1562.0098 c 9.0385,-12.7087 13.5577,-29.512 13.5577,-50.4238 0,-35.031 -5.7928,-67.8024 -17.3785,-98.3141 -11.572,-30.4981 -28.3891,-57.0521 -50.4238,-79.6483 -22.0211,-22.5962 -48.8627,-40.3993 -80.5111,-53.3818 -31.6347,-12.9963 -67.7886,-19.5013 -108.4755,-19.5013 -39.5366,0 -76.1151,7.0665 -109.7355,21.1857 -33.6204,14.1192 -62.7216,34.1819 -87.2899,60.1607 -24.582,25.9925 -43.7819,57.4903 -57.6272,94.507 -13.8453,37.003 -20.7612,78.1008 -20.7612,123.3069 0,45.7539 7.0665,87.2899 21.1857,124.5668 14.1192,37.2906 33.7574,69.0623 58.9008,95.3424 25.1435,26.2664 54.6555,46.6167 88.5498,61.0098 33.9081,14.4205 70.3496,21.6102 109.3247,21.6102 41.2484,0 77.6899,-6.3406 109.3246,-19.063 31.6347,-12.7087 61.8589,-33.7574 90.6725,-63.1325 12.4348,-11.2981 20.6242,-21.8978 24.5819,-31.7853 3.9578,-9.8876 5.9298,-19.3506 5.9298,-28.3754 0.5615,-15.2696 -3.9577,-27.5537 -13.5577,-36.8798 -9.6,-9.3124 -20.8981,-13.9685 -33.8943,-13.9685 -8.477,0 -16.8034,1.8213 -25.0065,5.4915 -8.1894,3.6702 -16.2419,10.3121 -24.1437,19.9258 -16.3789,19.7751 -34.8941,35.3186 -55.5046,46.6167 -20.6242,11.2844 -45.9045,16.9403 -75.8548,16.9403 -27.1155,0 -51.2729,-4.7931 -72.4586,-14.4205 -21.1856,-9.5863 -39.1257,-23.144 -53.8201,-40.6595 -14.6807,-17.5292 -25.8418,-38.5642 -33.4698,-63.1462 -7.6279,-24.5819 -11.435,-51.5468 -11.435,-80.9355 0,-28.8 4.2316,-55.0801 12.7086,-78.8129 8.4634,-23.7192 20.3366,-44.0695 35.5925,-61.0098 15.2559,-16.954 33.3329,-30.2242 54.231,-39.8379 20.9117,-9.5862 43.7955,-14.4068 68.6514,-14.4068 42.9328,0 76.9778,10.6134 102.1212,31.7854 25.1298,21.1857 38.5505,51.2729 40.2487,90.2479 h -103.3812 c -16.3925,0 -29.3887,4.2454 -38.9887,12.7224 -9.6,8.4633 -14.4068,19.7751 -14.4068,33.8943 0,14.1329 4.8068,25.568 14.4068,34.3189 9.6,8.7509 22.5962,13.1332 38.9887,13.1332 h 148.2997 c 24.8559,0 41.8099,-6.3406 50.8484,-19.063"
             style="fill:#414142;fill-opacity:1;fill-rule:nonzero;stroke:none;stroke-width:1.36947"
             id="path56" /><path
             d="m 2547.1274,1842.9425 c 9.8875,7.354 20.4735,11.0105 31.7716,11.0105 15.8174,0 29.2382,-4.7931 40.2624,-14.3931 11.0105,-9.6137 16.5295,-24.5683 16.5295,-44.9323 v -473.7263 c 0,-15.2422 -4.9575,-27.677 -14.8314,-37.277 -9.9012,-9.5999 -22.7468,-14.4068 -38.5642,-14.4068 -15.2559,0 -27.9645,4.8069 -38.1397,14.4068 -10.1751,9.6 -15.2559,22.0348 -15.2559,37.277 v 322.0441 l -139.8226,-255.0909 c -6.2174,-11.8595 -12.9963,-20.7611 -20.3503,-26.6909 -7.3404,-5.9298 -16.6528,-8.8878 -27.9646,-8.8878 -18.6384,0 -34.1682,12.1335 -46.603,36.4415 l -135.591,250.8318 v -318.6478 c 0,-15.2422 -4.9575,-27.677 -14.8313,-37.277 -9.8876,-9.5999 -22.7469,-14.4068 -38.5643,-14.4068 -15.2558,0 -27.9645,4.8069 -38.1396,14.4068 -10.1752,9.6 -15.2559,22.0348 -15.2559,37.277 v 473.7263 c 0,18.6659 5.5189,33.1959 16.5295,43.6587 11.0242,10.449 25.294,15.6667 42.7958,15.6667 14.133,0 25.705,-3.9441 34.7434,-11.8596 9.0522,-7.9018 18.0907,-20.3229 27.1292,-37.2769 l 171.1698,-307.6236 173.7444,307.6236 c 9.6,18.077 19.3506,30.7856 29.2382,38.126"
             style="fill:#414142;fill-opacity:1;fill-rule:nonzero;stroke:none;stroke-width:1.36947"
             id="path58" /><path
             d="m 3077.1389,1488.7159 -86.4408,218.6355 -86.4409,-218.6355 z m -207.6251,-88.139 -38.9887,-98.3141 c -5.0807,-12.4211 -11.572,-21.035 -19.4875,-25.8419 -7.9019,-4.8068 -17.8031,-7.2034 -29.6627,-7.2034 -15.8174,0 -28.526,4.2454 -38.126,12.7087 -9.6137,8.477 -14.4205,19.7614 -14.4205,33.8943 0,6.2311 0.7121,12.0103 2.1227,17.3786 1.4105,5.3546 3.8071,12.0102 7.2034,19.912 l 193.2182,454.2389 c 6.2174,14.6944 14.1329,26.1294 23.7329,34.3326 9.6,8.1757 22.0347,12.2704 37.2906,12.2704 15.2559,0 27.8276,-4.0947 37.7015,-12.2704 9.9012,-8.2032 17.94,-19.6382 24.1711,-34.3326 l 193.2045,-454.2389 c 5.6559,-12.9962 8.477,-23.7191 8.477,-32.2098 0,-15.8174 -5.3683,-28.3754 -16.1049,-37.6878 -10.723,-9.3261 -24.0068,-13.996 -39.8241,-13.996 -12.9963,0 -23.596,3.2457 -31.7854,9.7506 -8.1894,6.4913 -15.1052,16.7897 -20.7474,30.9226 l -35.5925,90.6862 h -242.3822"
             style="fill:#414142;fill-opacity:1;fill-rule:nonzero;stroke:none;stroke-width:1.36947"
             id="path60" /><path
             d="m 3642.7703,1565.228 c 18.9123,19.4876 28.3753,45.617 28.3753,78.3884 0,35.031 -9.7369,61.7356 -29.2381,80.0865 -19.4875,18.3646 -47.8766,27.5263 -85.1809,27.5263 h -100.8339 v -215.2256 h 102.5457 c 37.2906,0 65.3921,9.7369 84.3319,29.2244 z m 10.1477,266.5259 c 26.8416,-9.6 49.7254,-23.1577 68.6652,-40.6869 18.9123,-17.5155 33.4561,-38.6875 43.6312,-63.5433 10.1751,-24.8558 15.2559,-52.8341 15.2559,-83.9073 0,-31.6484 -5.2177,-60.0375 -15.6804,-85.1672 -10.4491,-25.1571 -25.4311,-46.3291 -44.9186,-63.557 -19.4875,-17.2279 -42.7822,-30.5118 -69.9113,-39.8379 -27.1155,-9.3123 -57.6272,-13.9685 -91.5216,-13.9685 h -102.5457 v -126.2924 c 0,-15.8036 -4.9438,-28.6629 -14.8314,-38.5505 -9.8875,-9.8876 -22.7331,-14.8313 -38.5505,-14.8313 -15.8311,0 -28.6767,4.9437 -38.5642,14.8313 -9.8876,9.8876 -14.8314,22.7469 -14.8314,38.5505 v 477.9581 c 0,15.8447 4.9438,28.6903 14.8314,38.5779 9.8875,9.8875 22.7331,14.8313 38.5642,14.8313 h 159.3239 c 33.8943,0 64.2554,-4.8068 91.0833,-14.4068"
             style="fill:#414142;fill-opacity:1;fill-rule:nonzero;stroke:none;stroke-width:1.36947"
             id="path62" /></g><g
           id="g1053"
           transform="matrix(0.66800784,0,0,0.66800784,111.46504,618.31216)"><path
             d="m 1702.9051,977.47976 c -59.8321,59.84574 -138.4943,89.79604 -216.9648,89.78234 -78.539,0.014 -157.2149,-29.9777 -217.0196,-89.78234 -59.7431,-59.7362 -89.6892,-138.31627 -89.6728,-216.7731 -0.016,-78.48421 29.9571,-157.1711 89.8508,-217.04835 59.7362,-59.76359 138.3574,-89.71111 216.8279,-89.70016 78.4705,-0.0109 157.0917,29.89823 216.8553,89.66318 59.8046,59.80193 89.7686,138.47787 89.7549,217.00317 0.014,78.48421 -29.8818,157.11906 -89.6317,216.85526 l -22.7195,-22.71948 c 53.5051,-53.51881 80.1961,-123.73143 80.2098,-194.13578 -0.014,-70.41805 -26.7731,-140.71421 -80.333,-194.28369 -53.5325,-53.53251 -123.7588,-80.22618 -194.1358,-80.23714 -70.3633,0.011 -140.5759,26.74161 -194.1084,80.27411 -53.6681,53.67082 -80.4261,123.93823 -80.4412,194.32888 0.015,70.36327 26.7471,140.52112 80.2632,194.05362 53.5872,53.57362 123.8547,80.34672 194.3001,80.36042 70.3769,-0.014 140.617,-26.7457 194.2453,-80.36042 l 22.7195,22.71948"
             style="fill:#414142;fill-opacity:1;fill-rule:nonzero;stroke:none;stroke-width:1.36947"
             id="path14" /><path
             d="m 453.02313,858.1717 c 33.60538,454.636 357.10933,829.8839 785.98287,940.8245 V 1862.43 C 776.24361,1749.8049 425.79948,1347.6059 391.1985,859.33575 358.85577,847.40769 335.746,816.38923 335.746,779.90661 c 0,-46.82212 37.95481,-84.77007 84.76322,-84.77007 46.81253,0 84.76186,37.94795 84.76186,84.77007 0,35.27749 -21.58008,65.51535 -52.24795,78.26509"
             style="fill:#414142;fill-opacity:1;fill-rule:nonzero;stroke:none;stroke-width:1.36947"
             id="path16" /><path
             d="m 1502.4424,30.562459 c -33.1001,0 -61.6946,-19.021911 -75.6494,-46.685165 -405.5954,38.249242 -724.05559,380.590226 -724.05559,796.029316 0,348.65289 224.38871,645.74529 536.26859,754.90559 v 65.214 C 892.45667,1488.4557 640.94428,1163.0564 640.94428,779.90661 c 0,-447.56818 343.10104,-816.383719 780.08322,-857.547189 10.1615,-35.414441 42.7274,-61.338471 81.4149,-61.338471 46.8084,0 84.7564,37.94933 84.7564,84.768699 0,46.8084175 -37.948,84.77281 -84.7564,84.77281"
             style="fill:#414142;fill-opacity:1;fill-rule:nonzero;stroke:none;stroke-width:1.36947"
             id="path18" /><path
             d="m 2157.815,786.52114 c 0,46.82211 -37.948,84.75637 -84.7701,84.75637 -46.8084,0 -84.7564,-37.93426 -84.7564,-84.75637 0,-36.71544 23.3769,-67.88453 56.025,-79.66196 -35.8253,-267.14076 -265.1016,-473.87702 -541.8711,-473.87702 -301.561,0 -546.91625,245.33746 -546.91625,546.92445 0,206.09124 114.64505,385.87499 283.47985,479.09469 v 69.5827 c -204.1041,-98.3826 -345.2771,-307.3497 -345.2771,-548.67739 0,-335.65799 273.0596,-608.71622 608.7135,-608.71622 311.5813,0 569.0687,235.37184 604.401,537.61344 29.9777,13.06472 50.9716,42.93282 50.9716,77.71731"
             style="fill:#414142;fill-opacity:1;fill-rule:nonzero;stroke:none;stroke-width:1.36947"
             id="path20" /><path
             d="m 1269.0302,566.44762 -44.6378,-44.64739 22.7127,-22.71948 44.6446,44.6474"
             style="fill:#414142;fill-opacity:1;fill-rule:nonzero;stroke:none;stroke-width:1.36947"
             id="path64" /><path
             d="m 1724.7755,1022.1792 -44.6446,-44.63097 22.7194,-22.71947 44.631,44.63096"
             style="fill:#414142;fill-opacity:1;fill-rule:nonzero;stroke:none;stroke-width:1.36947"
             id="path66" /><g
             style="fill:#414142;fill-opacity:1"
             id="g68"
             transform="matrix(1.369468,0,0,1.369468,-124.04741,-688.10834)"><g
               style="fill:#414142;fill-opacity:1"
               id="g70"
               clip-path="url(#clipPath74)"><path
                 d="m 989.113,1216.47 c -9.226,-9.21 -16.004,-20.34 -20.383,-32.62 -4.386,-12.28 -6.421,-25.7 -6.425,-39.82 0.031,-30.55 9.433,-64.48 26.609,-98.88 17.206,-34.39 42.276,-69.228 74.236,-101.201 31.98,-31.98 66.87,-57.078 101.29,-74.301 34.43,-17.199 68.4,-26.617 98.97,-26.648 14.11,0 27.52,2.039 39.8,6.422 12.26,4.367 23.39,11.148 32.6,20.359 l -16.59,16.59 c -6.63,-6.609 -14.57,-11.512 -23.9,-14.859 -9.33,-3.332 -20.05,-5.051 -31.91,-5.051 -25.67,-0.031 -56.55,8.18 -88.48,24.168 -31.93,15.973 -64.91,39.633 -95.19,69.91 -30.27,30.262 -53.89,63.201 -69.84,95.101 -15.974,31.89 -24.166,62.74 -24.134,88.39 0,11.87 1.722,22.6 5.058,31.93 3.348,9.34 8.254,17.29 14.876,23.92 l -16.587,16.59"
                 style="fill:#414142;fill-opacity:1;fill-rule:nonzero;stroke:none"
                 id="path76" /><path
                 d="m 1075.85,1311.4 c -9.39,-9.37 -16.28,-20.69 -20.74,-33.19 -4.46,-12.49 -6.54,-26.15 -6.54,-40.53 0.03,-31.11 9.61,-65.7 27.12,-100.76 17.53,-35.05 43.09,-70.58 75.67,-103.16 32.61,-32.61 68.17,-58.201 103.26,-75.748 35.09,-17.532 69.71,-27.133 100.85,-27.16 14.37,0 28.02,2.078 40.51,6.539 12.48,4.449 23.8,11.339 33.17,20.711 l -16.59,16.589 c -6.79,-6.769 -14.92,-11.793 -24.47,-15.211 -9.54,-3.41 -20.51,-5.171 -32.62,-5.171 -26.24,-0.028 -57.77,8.351 -90.36,24.679 -32.6,16.301 -66.26,40.452 -97.16,71.362 -30.89,30.88 -55,64.5 -71.28,97.06 -16.3,32.55 -24.67,64.05 -24.64,90.27 0,12.12 1.76,23.09 5.17,32.64 3.43,9.56 8.45,17.7 15.23,24.49 l -16.58,16.59"
                 style="fill:#414142;fill-opacity:1;fill-rule:nonzero;stroke:none"
                 id="path78" /><path
                 d="m 1208.48,1325.22 c -6.53,-6.52 -11.32,-14.41 -14.39,-23.01 -3.07,-8.61 -4.47,-17.93 -4.47,-27.63 0.03,-21 6.44,-43.92 17.98,-67.05 11.57,-23.12 28.37,-46.45 49.75,-67.83 21.4,-21.4 44.75,-38.21 67.89,-49.8 23.16,-11.55 46.1,-17.98 67.11,-18.01 9.7,0 19.01,1.4 27.61,4.47 8.6,3.06 16.48,7.85 23,14.38 l -16.59,16.59 c -3.93,-3.92 -8.64,-6.84 -14.3,-8.87 -5.65,-2.02 -12.27,-3.11 -19.72,-3.11 -16.11,-0.03 -35.97,5.18 -56.61,15.54 -20.66,10.32 -42.11,25.69 -61.8,45.4 -19.69,19.68 -35.04,41.1 -45.35,61.73 -10.34,20.62 -15.54,40.46 -15.51,56.56 0,7.45 1.08,14.08 3.11,19.73 2.03,5.67 4.95,10.38 8.88,14.32 l -16.59,16.59"
                 style="fill:#414142;fill-opacity:1;fill-rule:nonzero;stroke:none"
                 id="path80" /><path
                 d="m 1346.5,1228.71 c -7.41,7.42 -16.41,12.85 -26.31,16.32 -9.91,3.49 -20.71,5.07 -32.1,5.08 -29.09,-0.06 -62.22,-10.18 -96.55,-28.24 -34.31,-18.09 -69.77,-44.29 -102.76,-77.27 -32.96,-32.97 -59.12,-68.4 -77.2,-102.67 -18.029,-34.3 -28.135,-67.391 -28.189,-96.469 0,-11.391 1.589,-22.199 5.078,-32.121 3.476,-9.91 8.91,-18.91 16.341,-26.328 7.39,-7.41 16.38,-12.832 26.27,-16.301 9.91,-3.481 20.7,-5.063 32.08,-5.063 29.07,0.051 62.17,10.153 96.48,28.18 34.28,18.07 69.72,44.231 102.7,77.203 33,33.009 59.19,68.489 77.28,102.799 18.06,34.35 28.17,67.48 28.23,96.56 0,11.38 -1.59,22.16 -5.06,32.06 -3.47,9.88 -8.89,18.87 -16.29,26.26 l -16.59,-16.59 c 4.75,-4.77 8.29,-10.51 10.74,-17.45 2.44,-6.94 3.74,-15.08 3.74,-24.28 0.05,-23.51 -8.65,-53.69 -25.52,-85.62 -16.84,-31.96 -41.68,-65.71 -73.12,-97.149 -31.4,-31.41 -65.12,-56.223 -97.05,-73.031 -31.89,-16.852 -62.04,-25.539 -85.54,-25.481 -9.2,0 -17.35,1.289 -24.29,3.731 -6.95,2.461 -12.7,6 -17.48,10.762 -4.78,4.789 -8.33,10.558 -10.79,17.527 -2.45,6.953 -3.75,15.121 -3.75,24.332 -0.05,23.508 8.63,53.648 25.49,85.529 16.81,31.91 41.62,65.62 73.03,97.02 31.42,31.43 65.16,56.27 97.11,73.11 31.92,16.88 62.09,25.58 85.61,25.53 9.21,0 17.37,-1.3 24.31,-3.75 6.96,-2.46 12.72,-6.01 17.51,-10.78 l 16.59,16.59"
                 style="fill:#414142;fill-opacity:1;fill-rule:nonzero;stroke:none"
                 id="path82" /></g></g></g></g></g></g></svg>
